<svg width="100" height="100" viewBox="0 0 100 100" fill="none" xmlns="http://www.w3.org/2000/svg">
<path fill-rule="evenodd" clip-rule="evenodd" d="M27.7724 32.5748C26.7251 32.5742 25.8177 32.441 25.0502 32.1753C24.2957 31.8942 23.7113 31.4504 23.297 30.8438C23.2499 30.7731 23.2051 30.6998 23.1626 30.6237C22.3693 30.7677 21.6004 30.8336 20.8559 30.8216C19.9386 30.792 19.1175 30.6293 18.3926 30.3334C17.6676 30.0227 17.0906 29.5789 16.6616 29.0019C16.2473 28.4249 16.0402 27.6925 16.0402 26.8049C16.0402 26.0207 16.2104 25.3106 16.5506 24.6744C16.9057 24.0234 17.3939 23.4538 18.0153 22.9656C18.6515 22.4774 19.3912 22.0631 20.2345 21.7229C20.8687 21.467 21.5446 21.2571 22.2624 21.0933L22.1874 19.4149H25.3165L25.6938 27.2709C25.7234 27.8775 25.8195 28.3435 25.9823 28.669C26.1598 28.9797 26.4113 29.1942 26.7368 29.3126C27.0607 29.4156 27.4799 29.4674 27.9943 29.4679C28.5565 29.4679 29.0004 29.4161 29.3258 29.3126C29.6661 29.209 29.9324 29.0019 30.1248 28.6912C30.3319 28.3657 30.502 27.8923 30.6352 27.2709C30.7831 26.6495 30.9311 25.821 31.079 24.7854L33.9862 25.2736C33.9566 25.4955 33.9122 25.7544 33.853 26.0503C33.8086 26.3462 33.7643 26.6495 33.7199 26.9602C33.6903 27.2561 33.6755 27.5372 33.6755 27.8035C33.6755 28.1586 33.7495 28.4619 33.8974 28.7134C34.0602 28.9501 34.3413 29.135 34.7407 29.2682C35.155 29.4013 35.7468 29.4679 36.5161 29.4679H39.6849C39.9956 29.4679 40.2693 29.4531 40.506 29.4235C40.7427 29.3791 40.935 29.3126 41.083 29.2238C41.2457 29.135 41.3641 29.0241 41.4381 28.8909C41.512 28.7578 41.549 28.6024 41.549 28.4249C41.549 28.2473 41.4529 27.9662 41.2605 27.5816C41.083 27.1821 40.6909 26.7013 40.0843 26.1391C39.7589 25.8432 39.4038 25.5325 39.0191 25.207C38.6492 24.8667 38.2942 24.5487 37.9539 24.2528C37.6136 23.9421 37.3325 23.6684 37.1106 23.4317C36.8887 23.1949 36.7777 23.0248 36.7777 22.9212C36.7777 22.6993 36.7925 22.4552 36.8221 22.1889C36.8517 21.9226 36.8961 21.6785 36.9552 21.4566C37.0292 21.2346 37.1254 21.0719 37.2437 20.9683C37.4953 20.7316 37.8651 20.4579 38.3534 20.1472C38.8564 19.8217 39.4556 19.4741 40.1509 19.1042C40.8463 18.7195 41.623 18.3201 42.4811 17.9058C43.354 17.4768 44.286 17.0477 45.2773 16.6187L46.5422 19.3261C45.7285 19.6812 44.9592 20.0289 44.2343 20.3691C43.5093 20.6946 42.8288 21.0201 42.1926 21.3456C41.5712 21.6563 40.9942 21.967 40.4616 22.2777L40.3856 22.3213C41.1795 22.9699 41.8411 23.5694 42.3701 24.1196C43.1247 24.8889 43.6869 25.5769 44.0567 26.1835C44.4266 26.7753 44.6707 27.3079 44.7891 27.7813C44.9074 28.2399 44.9666 28.6468 44.9666 29.0019C44.9666 29.3569 44.8778 29.7416 44.7003 30.1559C44.5376 30.5553 44.2343 30.94 43.7904 31.3099C43.3614 31.6797 42.7548 31.983 41.9707 32.2197C41.1865 32.4564 40.1805 32.5748 38.9525 32.5748H36.2942H36.2895C35.2708 32.5745 34.4438 32.4783 33.8086 32.2863C33.1725 32.094 32.699 31.7685 32.3884 31.3099C32.2945 31.1713 32.2108 31.0173 32.1372 30.8477C32.0675 30.9486 31.9958 31.0435 31.9223 31.1323C31.5672 31.5466 31.1678 31.8573 30.7239 32.0644C30.2801 32.2715 29.8067 32.4047 29.3036 32.4638C28.8204 32.5371 28.3154 32.574 27.7886 32.5748L27.7798 32.5748H27.7724ZM22.4005 24.1842L22.5525 27.5888C22.4755 27.6025 22.3982 27.6149 22.3206 27.626C21.9211 27.6851 21.5291 27.7073 21.1444 27.6925C20.7597 27.6777 20.4195 27.626 20.1236 27.5372C19.8277 27.4336 19.591 27.3005 19.4134 27.1377C19.2359 26.975 19.1471 26.7679 19.1471 26.5164C19.1471 26.2057 19.2433 25.9172 19.4356 25.6509C19.6279 25.3698 19.9016 25.1183 20.2567 24.8963C20.6266 24.6744 21.063 24.4969 21.5661 24.3637C21.8289 24.2886 22.1071 24.2288 22.4005 24.1842ZM23.7853 17.1291C23.3562 17.1291 22.9863 16.9811 22.6757 16.6852C22.3798 16.3746 22.2318 16.0121 22.2318 15.5978C22.2318 15.1688 22.3798 14.7989 22.6757 14.4882C22.9863 14.1775 23.3562 14.0222 23.7853 14.0222C24.1995 14.0222 24.5546 14.1775 24.8505 14.4882C25.1464 14.7989 25.2943 15.1688 25.2943 15.5978C25.2943 16.0121 25.1464 16.3746 24.8505 16.6852C24.5546 16.9811 24.1995 17.1291 23.7853 17.1291ZM19.946 17.1069C19.517 17.1069 19.1471 16.9589 18.8364 16.6631C18.5405 16.3524 18.3926 15.9899 18.3926 15.5756C18.3926 15.1466 18.5405 14.7767 18.8364 14.466C19.1471 14.1553 19.517 14 19.946 14C20.3603 14 20.7154 14.1553 21.0112 14.466C21.3071 14.7767 21.4551 15.1466 21.4551 15.5756C21.4551 15.9899 21.3071 16.3524 21.0112 16.6631C20.7154 16.9589 20.3603 17.1069 19.946 17.1069ZM31.7226 37.679C31.2935 37.679 30.9237 37.531 30.613 37.2351C30.3171 36.9393 30.1691 36.5768 30.1691 36.1477C30.1691 35.7187 30.3171 35.3414 30.613 35.0159C30.9237 34.7052 31.2935 34.5499 31.7226 34.5499C32.1516 34.5499 32.5141 34.7052 32.81 35.0159C33.1207 35.3414 33.276 35.7187 33.276 36.1477C33.276 36.5768 33.1207 36.9393 32.81 37.2351C32.5141 37.531 32.1516 37.679 31.7226 37.679ZM44.7017 34.7274C45.974 34.2836 47.0023 33.7954 47.7864 33.2628C48.5853 32.7302 49.1697 32.1606 49.5396 31.554C49.9242 30.9474 50.1166 30.3186 50.1166 29.6676C50.1166 29.2534 50.0574 28.8243 49.939 28.3805C49.8207 27.9219 49.6505 27.441 49.4286 26.938C49.2215 26.435 48.97 25.9098 48.6741 25.3624L51.5812 23.9643C52.0991 24.9555 52.4985 25.9024 52.7796 26.8049C53.0755 27.7073 53.2235 28.5506 53.2235 29.3348C53.2235 30.0597 53.1273 30.7551 52.935 31.4208C52.7574 32.0866 52.4763 32.708 52.0917 33.285C51.7218 33.8767 51.241 34.4315 50.6492 34.9494C50.0574 35.4672 49.362 35.9406 48.5631 36.3697C47.7642 36.8135 46.8543 37.213 45.8335 37.568L44.7017 34.7274ZM63.8605 34.3875C63.6684 34.326 63.4587 34.2953 63.2314 34.2953H55.4357C54.61 34.2953 54.0029 34.5138 53.6143 34.951C53.2743 35.3396 53.0314 35.6553 52.8857 35.8981L40.0629 58.921L27.24 35.8981C27.1429 35.6553 26.8757 35.3396 26.4386 34.951C26.05 34.5138 25.4671 34.2953 24.69 34.2953H16.8214C16.3357 34.2953 15.8986 34.4653 15.51 34.8053C15.17 35.1453 15 35.5824 15 36.1167V83.4738C15 84.0081 15.17 84.4453 15.51 84.7853C15.8986 85.1253 16.3357 85.2953 16.8214 85.2953H25.5643C26.0986 85.2953 26.5357 85.1253 26.8757 84.7853C27.2157 84.4453 27.3857 84.0081 27.3857 83.4738V56.1524L35.6186 71.3796C35.8614 71.8167 36.1771 72.2053 36.5657 72.5453C36.9543 72.8853 37.4886 73.0553 38.1686 73.0553H41.9571C42.6371 73.0553 43.1714 72.8853 43.56 72.5453C43.9486 72.2053 44.24 71.8167 44.4343 71.3796L52.1817 57.0503L63.8605 34.3875ZM31.3995 84.3011C31.8659 84.5181 32.3919 84.6265 32.9776 84.6265C33.4006 84.6265 33.7694 84.5723 34.084 84.4638C34.4093 84.3662 34.6914 84.2306 34.93 84.0571C35.1686 83.8836 35.3584 83.6937 35.4994 83.4877V84.0571C35.4994 84.1764 35.5374 84.274 35.6133 84.35C35.6892 84.4259 35.7868 84.4638 35.9062 84.4638H37.7934C37.9019 84.4638 37.9941 84.4259 38.07 84.35C38.1568 84.274 38.2002 84.1764 38.2002 84.0571V79.1111C38.2002 78.6339 38.1242 78.2 37.9724 77.8096C37.8205 77.4082 37.5874 77.0612 37.2728 76.7683C36.9691 76.4755 36.5678 76.2477 36.0689 76.085C35.5699 75.9223 34.9679 75.8409 34.2629 75.8409C33.5904 75.8409 33.0156 75.9223 32.5383 76.085C32.0611 76.2477 31.6706 76.4538 31.3669 76.7032C31.0632 76.9527 30.8355 77.2076 30.6836 77.4679C30.5426 77.7174 30.4721 77.9397 30.4721 78.135C30.4613 78.2326 30.4884 78.3193 30.5534 78.3953C30.6185 78.4604 30.7107 78.4929 30.83 78.4929H32.6522C32.8258 78.4929 32.9614 78.4224 33.059 78.2814C33.1674 78.0753 33.3139 77.9126 33.4982 77.7933C33.6935 77.674 33.943 77.6143 34.2467 77.6143C34.6805 77.6143 34.9788 77.7174 35.1415 77.9235C35.3042 78.1295 35.3855 78.4278 35.3855 78.8183V79.0461L33.3518 79.3552C32.3106 79.5179 31.4754 79.827 30.8463 80.2825C30.2172 80.7272 29.9027 81.3346 29.9027 82.1047C29.9027 82.582 30.0382 83.0104 30.3094 83.39C30.5806 83.7697 30.9439 84.0734 31.3995 84.3011ZM34.5883 82.5766C34.3388 82.7067 34.0568 82.7718 33.7423 82.7718C33.5254 82.7718 33.3301 82.7393 33.1566 82.6742C32.983 82.5983 32.842 82.4952 32.7336 82.3651C32.6251 82.2349 32.5709 82.0776 32.5709 81.8932C32.5709 81.6546 32.6848 81.4485 32.9125 81.275C33.1512 81.0906 33.5254 80.955 34.0351 80.8683L35.4181 80.6242V80.852C35.4181 81.2858 35.3421 81.6492 35.1903 81.9421C35.0493 82.2241 34.8486 82.4356 34.5883 82.5766ZM40.15 84.35C40.2259 84.4259 40.3235 84.4638 40.4428 84.4638H42.4603C42.5796 84.4638 42.6772 84.4259 42.7531 84.35C42.8399 84.274 42.8833 84.1764 42.8833 84.0571V79.8921C42.8833 79.4474 43.0026 79.1057 43.2412 78.8671C43.4907 78.6176 43.8378 78.4929 44.2825 78.4929H45.8606C45.9691 78.4929 46.0613 78.4549 46.1372 78.379C46.224 78.2922 46.2674 78.1946 46.2674 78.0862V76.4104C46.2674 76.2911 46.224 76.1934 46.1372 76.1175C46.0613 76.0416 45.9691 76.0036 45.8606 76.0036H45.1448C44.635 76.0036 44.174 76.0958 43.7618 76.2802C43.3605 76.4646 43.0134 76.7249 42.7206 77.0612V76.4104C42.7206 76.3019 42.6826 76.2097 42.6067 76.1338C42.5308 76.047 42.4332 76.0036 42.3138 76.0036H40.4428C40.3235 76.0036 40.2259 76.047 40.15 76.1338C40.0741 76.2097 40.0361 76.3019 40.0361 76.4104V84.0571C40.0361 84.1764 40.0741 84.274 40.15 84.35ZM47.5381 84.35C47.614 84.4259 47.7116 84.4638 47.8309 84.4638H49.7182C49.8266 84.4638 49.9188 84.4259 49.9948 84.35C50.0815 84.274 50.1249 84.1764 50.1249 84.0571V81.096L52.6955 84.1873C52.7606 84.2523 52.8311 84.3174 52.907 84.3825C52.983 84.4367 53.1023 84.4638 53.265 84.4638H55.4939C55.6024 84.4638 55.6891 84.4313 55.7542 84.3662C55.8301 84.2903 55.8681 84.2035 55.8681 84.1059C55.8681 84.0191 55.8247 83.9324 55.7379 83.8456L52.4027 79.7945L55.3312 76.6382C55.3746 76.6056 55.4071 76.5622 55.4288 76.508C55.4505 76.4538 55.4614 76.405 55.4614 76.3616C55.4614 76.264 55.4234 76.1826 55.3475 76.1175C55.2824 76.0416 55.201 76.0036 55.1034 76.0036H52.9233C52.7823 76.0036 52.6738 76.0308 52.5979 76.085C52.522 76.1392 52.4515 76.2043 52.3864 76.2802L50.1249 78.7695V73.3191C50.1249 73.1998 50.0815 73.1022 49.9948 73.0263C49.9188 72.9504 49.8266 72.9124 49.7182 72.9124H47.8309C47.7116 72.9124 47.614 72.9504 47.5381 73.0263C47.4621 73.1022 47.4242 73.1998 47.4242 73.3191V84.0571C47.4242 84.1764 47.4621 84.274 47.5381 84.35ZM57.7105 84.3011C58.1769 84.5181 58.703 84.6265 59.2887 84.6265C59.7117 84.6265 60.0805 84.5723 60.395 84.4638C60.7204 84.3662 61.0024 84.2306 61.241 84.0571C61.4796 83.8836 61.6695 83.6937 61.8105 83.4877V84.0571C61.8105 84.1764 61.8484 84.274 61.9243 84.35C62.0003 84.4259 62.0979 84.4638 62.2172 84.4638H64.1045C64.2129 84.4638 64.3051 84.4259 64.3811 84.35C64.4678 84.274 64.5112 84.1764 64.5112 84.0571V79.1111C64.5112 78.6339 64.4353 78.2 64.2834 77.8096C64.1316 77.4082 63.8984 77.0612 63.5838 76.7683C63.2801 76.4755 62.8788 76.2477 62.3799 76.085C61.881 75.9223 61.279 75.8409 60.574 75.8409C59.9015 75.8409 59.3266 75.9223 58.8494 76.085C58.3721 76.2477 57.9817 76.4538 57.678 76.7032C57.3743 76.9527 57.1465 77.2076 56.9946 77.4679C56.8536 77.7174 56.7831 77.9397 56.7831 78.135C56.7723 78.2326 56.7994 78.3193 56.8645 78.3953C56.9296 78.4604 57.0218 78.4929 57.1411 78.4929H58.9633C59.1368 78.4929 59.2724 78.4224 59.37 78.2814C59.4785 78.0753 59.6249 77.9126 59.8093 77.7933C60.0045 77.674 60.254 77.6143 60.5577 77.6143C60.9916 77.6143 61.2898 77.7174 61.4525 77.9235C61.6152 78.1295 61.6966 78.4278 61.6966 78.8183V79.0461L59.6629 79.3552C58.6216 79.5179 57.7864 79.827 57.1573 80.2825C56.5283 80.7272 56.2137 81.3346 56.2137 82.1047C56.2137 82.582 56.3493 83.0104 56.6204 83.39C56.8916 83.7697 57.255 84.0734 57.7105 84.3011ZM60.8994 82.5766C60.6499 82.7067 60.3679 82.7718 60.0533 82.7718C59.8364 82.7718 59.6412 82.7393 59.4676 82.6742C59.2941 82.5983 59.1531 82.4952 59.0446 82.3651C58.9362 82.2349 58.8819 82.0776 58.8819 81.8932C58.8819 81.6546 58.9958 81.4485 59.2236 81.275C59.4622 81.0906 59.8364 80.955 60.3462 80.8683L61.7291 80.6242V80.852C61.7291 81.2858 61.6532 81.6492 61.5013 81.9421C61.3603 82.2241 61.1597 82.4356 60.8994 82.5766ZM69.9915 84.3174C70.4037 84.5235 70.9135 84.6265 71.5209 84.6265C72.0632 84.6265 72.5404 84.5452 72.9526 84.3825C73.3648 84.209 73.7173 83.9595 74.0101 83.6341C74.303 83.2979 74.5308 82.8965 74.6935 82.4301C74.867 81.9529 74.9646 81.4106 74.9863 80.8032C74.9972 80.5863 75.0026 80.3964 75.0026 80.2337C75.0026 80.0602 74.9972 79.8704 74.9863 79.6643C74.9646 79.0786 74.8724 78.5525 74.7097 78.0862C74.547 77.6198 74.3193 77.2184 74.0264 76.8822C73.7336 76.546 73.3756 76.2911 72.9526 76.1175C72.5404 75.9331 72.0632 75.8409 71.5209 75.8409C70.9894 75.8409 70.523 75.9331 70.1217 76.1175C69.7312 76.2911 69.4058 76.5188 69.1455 76.8008V73.3191C69.1455 73.1998 69.1076 73.1022 69.0316 73.0263C68.9557 72.9504 68.8581 72.9124 68.7388 72.9124H66.7539C66.6346 72.9124 66.5369 72.9504 66.461 73.0263C66.3851 73.1022 66.3471 73.1998 66.3471 73.3191V84.0571C66.3471 84.1764 66.3851 84.274 66.461 84.35C66.5369 84.4259 66.6346 84.4638 66.7539 84.4638H68.5923C68.7008 84.4638 68.793 84.4259 68.8689 84.35C68.9557 84.274 68.9991 84.1764 68.9991 84.0571V83.5365C69.2594 83.851 69.5902 84.1113 69.9915 84.3174ZM71.5046 82.2186C71.2985 82.3705 71.0111 82.4464 70.6423 82.4464C70.2844 82.4464 69.997 82.3705 69.78 82.2186C69.5631 82.0559 69.4058 81.8499 69.3082 81.6004C69.2106 81.3509 69.1564 81.0798 69.1455 80.7869C69.1347 80.57 69.1292 80.3639 69.1292 80.1687C69.1292 79.9734 69.1347 79.7728 69.1455 79.5667C69.1564 79.2955 69.216 79.0461 69.3245 78.8183C69.4329 78.5797 69.5956 78.3898 69.8126 78.2488C70.0295 78.097 70.3061 78.0211 70.6423 78.0211C71.0111 78.0211 71.2985 78.097 71.5046 78.2488C71.7107 78.4007 71.8571 78.6068 71.9439 78.8671C72.0415 79.1274 72.1012 79.4148 72.1229 79.7294C72.1446 80.0656 72.1446 80.4019 72.1229 80.7381C72.1012 81.0526 72.0415 81.3401 71.9439 81.6004C71.8571 81.8607 71.7107 82.0668 71.5046 82.2186ZM77.5709 84.3011C78.0373 84.5181 78.5634 84.6265 79.1491 84.6265C79.5721 84.6265 79.9408 84.5723 80.2554 84.4638C80.5808 84.3662 80.8628 84.2306 81.1014 84.0571C81.34 83.8836 81.5298 83.6937 81.6708 83.4877V84.0571C81.6708 84.1764 81.7088 84.274 81.7847 84.35C81.8607 84.4259 81.9583 84.4638 82.0776 84.4638H83.9649C84.0733 84.4638 84.1655 84.4259 84.2414 84.35C84.3282 84.274 84.3716 84.1764 84.3716 84.0571V79.1111C84.3716 78.6339 84.2957 78.2 84.1438 77.8096C83.992 77.4082 83.7588 77.0612 83.4442 76.7683C83.1405 76.4755 82.7392 76.2477 82.2403 76.085C81.7413 75.9223 81.1394 75.8409 80.4344 75.8409C79.7619 75.8409 79.187 75.9223 78.7098 76.085C78.2325 76.2477 77.8421 76.4538 77.5384 76.7032C77.2347 76.9527 77.0069 77.2076 76.855 77.4679C76.714 77.7174 76.6435 77.9397 76.6435 78.135C76.6327 78.2326 76.6598 78.3193 76.7249 78.3953C76.79 78.4604 76.8822 78.4929 77.0015 78.4929H78.8237C78.9972 78.4929 79.1328 78.4224 79.2304 78.2814C79.3389 78.0753 79.4853 77.9126 79.6697 77.7933C79.8649 77.674 80.1144 77.6143 80.4181 77.6143C80.8519 77.6143 81.1502 77.7174 81.3129 77.9235C81.4756 78.1295 81.557 78.4278 81.557 78.8183V79.0461L79.5233 79.3552C78.482 79.5179 77.6468 79.827 77.0177 80.2825C76.3886 80.7272 76.0741 81.3346 76.0741 82.1047C76.0741 82.582 76.2097 83.0104 76.4808 83.39C76.752 83.7697 77.1154 84.0734 77.5709 84.3011ZM80.7598 82.5766C80.5103 82.7067 80.2283 82.7718 79.9137 82.7718C79.6968 82.7718 79.5016 82.7393 79.328 82.6742C79.1545 82.5983 79.0135 82.4952 78.905 82.3651C78.7965 82.2349 78.7423 82.0776 78.7423 81.8932C78.7423 81.6546 78.8562 81.4485 79.084 81.275C79.3226 81.0906 79.6968 80.955 80.2066 80.8683L81.5895 80.6242V80.852C81.5895 81.2858 81.5136 81.6492 81.3617 81.9421C81.2207 82.2241 81.0201 82.4356 80.7598 82.5766Z" fill="#EDF5F0"/>
<path d="M57.3914 71.6329C56.5657 68.4271 55.8371 65.2943 55.2057 62.2343C54.6229 59.1743 54.1857 56.3571 53.8943 53.7829C53.6029 51.2086 53.4571 49.0957 53.4571 47.4443C53.4571 44.4814 53.9914 42.0286 55.06 40.0857C56.1286 38.0943 57.5614 36.5643 59.3586 35.4957C61.1557 34.3786 63.1471 33.6257 65.3329 33.2371C67.5671 32.8486 69.85 32.7271 72.1814 32.8729C74.5614 32.97 76.7957 33.2614 78.8843 33.7471C79.03 32.0957 78.9329 30.5171 78.5929 29.0114C78.3014 27.4571 77.7914 26.0971 77.0629 24.9314C76.3829 23.7171 75.5086 22.77 74.44 22.09C73.3714 21.41 72.1571 21.07 70.7971 21.07C69.5829 21.07 68.4414 21.3371 67.3729 21.8714C66.3043 22.4057 65.2843 23.2314 64.3129 24.3486C63.39 25.4171 62.4914 26.7529 61.6171 28.3557L57.1 25.8786C58.3629 23.2557 59.7471 21.1671 61.2529 19.6129C62.8071 18.0586 64.4343 16.9414 66.1343 16.2614C67.8343 15.5329 69.51 15.1686 71.1614 15.1686C73.6386 15.1686 75.7271 15.7029 77.4271 16.7714C79.1271 17.7914 80.4629 19.1514 81.4343 20.8514C82.4543 22.5029 83.1829 24.3 83.62 26.2429C84.1057 28.1371 84.3486 29.9586 84.3486 31.7071C84.3486 32.9214 84.2029 34.1357 83.9114 35.35C83.62 36.5643 83.2557 37.6571 82.8186 38.6286C82.43 39.6 82.0414 40.3529 81.6529 40.8871C79.03 40.11 76.5771 39.5514 74.2943 39.2114C72.0114 38.8714 69.9471 38.7743 68.1014 38.92C66.3043 39.0171 64.75 39.4057 63.4386 40.0857C62.1271 40.7657 61.1314 41.7371 60.4514 43C59.7714 44.2629 59.4314 45.8657 59.4314 47.8086C59.4314 49.6057 59.5771 51.7429 59.8686 54.22C60.16 56.6971 60.5729 59.2957 61.1071 62.0157C61.6414 64.7843 62.2729 67.5043 63.0014 70.1757L57.3914 71.6329Z" fill="#BE5C2B"/>
</svg>
